<?xml version="1.0" standalone="no"?>
<!DOCTYPE svg PUBLIC "-//W3C//DTD SVG 20010904//EN"
 "http://www.w3.org/TR/2001/REC-SVG-20010904/DTD/svg10.dtd">
<svg version="1.0" xmlns="http://www.w3.org/2000/svg"
 width="300.000000pt" height="291.000000pt" viewBox="0 0 300.000000 291.000000"
 preserveAspectRatio="xMidYMid meet">
<metadata>
Created by potrace 1.10, written by Peter Selinger 2001-2011
</metadata>
<g transform="translate(0.000000,291.000000) scale(0.100000,-0.100000)"
fill="#000000" stroke="none">
<path d="M1346 2749 c-288 -40 -546 -168 -751 -374 -188 -187 -305 -406 -362
-675 -24 -118 -24 -372 0 -490 57 -269 174 -488 362 -675 187 -188 406 -305
675 -362 118 -24 372 -24 490 0 269 57 488 174 675 362 188 187 305 406 362
675 24 118 24 372 0 490 -57 269 -174 488 -362 675 -186 187 -408 306 -670
360 -96 20 -323 28 -419 14z m419 -50 c456 -91 835 -436 966 -879 56 -187 67
-436 29 -614 -53 -243 -154 -440 -315 -614 -240 -259 -568 -402 -921 -403
-143 0 -226 10 -349 43 -289 77 -552 269 -720 527 -86 133 -137 249 -177 406
-20 79 -23 115 -23 290 0 158 4 215 18 273 60 247 173 450 346 622 148 147
302 243 496 309 91 30 101 33 210 51 141 23 285 20 440 -11z"/>
<path d="M1860 2326 c-102 -29 -152 -65 -322 -234 -153 -151 -189 -194 -175
-209 3 -3 89 77 190 176 195 191 226 213 343 240 108 26 252 -16 346 -99 93
-81 146 -251 118 -373 -26 -111 -62 -159 -290 -388 -196 -197 -222 -219 -294
-255 -78 -38 -83 -39 -186 -39 -99 0 -109 2 -172 33 -36 18 -82 51 -103 73
-33 37 -37 46 -32 82 8 58 45 92 101 92 32 0 51 -6 68 -22 59 -56 152 -68 233
-29 68 32 424 390 454 456 46 101 7 204 -94 251 -94 43 -154 18 -305 -128
l-119 -114 -28 14 c-40 21 -141 38 -180 31 -34 -6 -54 -23 -31 -25 7 -1 31 -3
53 -5 48 -4 133 -23 157 -35 30 -16 70 10 173 110 71 69 114 103 147 116 137
52 249 -67 193 -203 -19 -45 -361 -392 -423 -429 -62 -37 -127 -34 -195 9 -90
57 -190 40 -223 -37 -39 -94 9 -177 137 -238 130 -61 259 -59 395 8 61 30 98
62 291 255 227 226 258 265 293 374 38 114 17 263 -50 361 -54 79 -165 162
-244 182 -46 12 -183 12 -226 -1z"/>
<path d="M1345 1793 c-61 -10 -171 -70 -235 -129 -152 -138 -406 -410 -429
-459 -13 -27 -28 -57 -32 -67 -21 -44 -31 -149 -20 -214 52 -294 361 -446 630
-309 95 48 453 407 403 405 -4 -1 -87 -79 -185 -174 -195 -190 -234 -216 -357
-242 -67 -14 -81 -14 -145 1 -38 8 -93 28 -120 44 -98 56 -178 171 -191 272
-3 24 -7 49 -9 55 -8 25 26 156 53 210 44 86 462 500 542 537 154 71 320 53
438 -49 52 -44 69 -91 48 -133 -36 -68 -106 -81 -174 -31 -65 47 -115 56 -186
36 -57 -17 -69 -27 -258 -214 -215 -212 -248 -258 -248 -342 0 -99 78 -180
174 -180 85 0 112 16 240 139 l121 117 39 -20 c46 -23 174 -34 202 -18 18 11
18 11 -3 12 -13 0 -23 3 -23 8 0 4 -24 8 -54 9 -29 1 -75 10 -101 18 -26 9
-59 14 -72 10 -14 -3 -74 -53 -133 -109 -115 -112 -127 -120 -180 -130 -111
-20 -200 81 -169 193 11 40 37 71 208 243 260 261 280 270 428 196 79 -39 86
-40 123 -29 50 15 97 62 106 106 14 78 -83 187 -199 224 -45 14 -182 23 -232
14z"/>
</g>
</svg>
